<mxfile host="65bd71144e">
    <diagram id="WkBjb4pW22fDtr13lLDv" name="ページ1">
        <mxGraphModel dx="1124" dy="658" grid="1" gridSize="10" guides="1" tooltips="1" connect="1" arrows="1" fold="1" page="1" pageScale="1" pageWidth="827" pageHeight="1169" math="0" shadow="0">
            <root>
                <mxCell id="0"/>
                <mxCell id="1" parent="0"/>
                <mxCell id="7" value="0" style="rounded=0;whiteSpace=wrap;html=1;fillColor=#dcdcea;strokeColor=#36393d;" parent="1" vertex="1">
                    <mxGeometry x="20" y="30" width="780" height="300" as="geometry"/>
                </mxCell>
                <mxCell id="21" value="GitHub CodeSpaces" style="text;html=1;strokeColor=none;fillColor=none;align=center;verticalAlign=middle;whiteSpace=wrap;rounded=0;fontSize=16;labelBorderColor=default;fontColor=#0a0a0a;strokeWidth=0;" parent="1" vertex="1">
                    <mxGeometry x="30" y="40" width="760" height="30" as="geometry"/>
                </mxCell>
                <mxCell id="25" style="edgeStyle=none;html=1;exitX=1;exitY=0.75;exitDx=0;exitDy=0;" parent="1" edge="1">
                    <mxGeometry relative="1" as="geometry">
                        <mxPoint x="120" y="180" as="sourcePoint"/>
                        <mxPoint x="120" y="176.66666666666663" as="targetPoint"/>
                    </mxGeometry>
                </mxCell>
                <mxCell id="26" value="ローカルマシン ブラウザ" style="rounded=0;whiteSpace=wrap;html=1;gradientColor=none;fillStyle=auto;fillColor=#ffffff;fontColor=#000000;verticalAlign=top;strokeColor=#000000;" vertex="1" parent="1">
                    <mxGeometry x="50" y="90" width="280" height="210" as="geometry"/>
                </mxCell>
                <mxCell id="27" value="GitHub" style="rounded=0;whiteSpace=wrap;html=1;gradientColor=none;fillStyle=auto;fillColor=#ffffff;fontColor=#000000;verticalAlign=top;strokeColor=#1d1921;" vertex="1" parent="1">
                    <mxGeometry x="390" y="90" width="390" height="210" as="geometry"/>
                </mxCell>
                <mxCell id="28" value="" style="shape=image;imageAspect=0;aspect=fixed;verticalLabelPosition=bottom;verticalAlign=top;fillStyle=auto;fontColor=#000000;fillColor=#E0E0E0;gradientColor=none;image=data:image/png,iVBORw0KGgoAAAANSUhEUgAAAT4AAACfCAMAAABX0UX9AAABdFBMVEUAAAD///8ac+ilpaUik0LcMyjfNyv7vgohkkHkPC/lPTAomkj7vw8rnUovok78wx38xCP8xir7ugAyplEAbecAaucAZ+f4tBP7vwDfAAD99fXiLjDn7/y1yvXu8/1lle2PsfHT4fp3qPDO5NP+7swAjED30tD76OfmOCnbKx34y8nXAAD+8df/9+f8/f9Wjuz935/94qsAYeagvfP92455ou/i8eauxfTgQzb804KKw5AyfOkAkTPz+PSz1roAiyf8yzzvpaDrhYDnb2vkX1niJxHxs7Drj4vsmZjlaWPme3nmJw/fUU/329ndRz3hKSW/y7P65cn50Zf5w2v4qQCabTr80XZ9gUOazqYbokTHRS1gkkqzWDNNsWZFnU7yvbr7xEi9UDCpYTcAnDOOdj50voZyh0T8zWHSOSttbBDTpJM/n1Vgr3Phx2C6zJalzrPZtwC72cePpB21sC1Rmj5qoDsAiRXTuiuEpDhTpWR7ojrDsADqqyLuAAAJu0lEQVR4nO3ci1PbRh4H8IraxvglPwiVOUweDsaKQ4CWuITImASLUEihvWup3fRySTkfvXPuHJqEhrt//lYvW5J3V5LXnal+3u9MMplkgelnfrv725XcTz6ZbD4V/tD5dML/uZMO52MK52MK52MK52MK52MK52MK52MK52MK52MK52MK52MK52MK52MK52MK52MK52MK52MK52MK52MK52MK52MK52MK52PKJPkWzUzwW04F32LlydP91rZa1KNut/afPqlMRBE83+rB/jYik6vVWGzOSKxaleVicfvoYJXz0VJ5JiO5aGyYOVuqalF+VuF8+Kwenjjp3Hxzc4k5WT05ZKhBsHyVr2TVbTfKh1JVq/v3OJ8j91qjhUfg0wTl1piAIPkqrZocxerh+RDgcWusRRAg3+pRTY5FCXwxPJ8GeDTGGgiP70BVo1GiHpFPm8IHU8+32qpFo775nH6J41bQAgTGd6AtejQ/mp62CwcsQFh8+7VoNACfW08rwKOp5Vt8rnrpeVSfVoDPgxyGAfGtynI0GB9GD/lVv55GvopTb6y1z/BL+G8BwfDdU116Y/MlEqrvMwgUvntq1J3x+RKyXz8gfF+7S49h8dMnsM/1DwbfqnvdY6w+5OevgQbBt7iN0WPk254evhZOj40vUW1NC99hDafHyJdQD6eDr4LXY+VLHPto/8LPt4iduRPgSySmge+pGoQviF/1KXw+0tSdRPV5T9+w8y2e+J27sqyqx+rxsaqenv7JZzxvX8LO9w2x+Ox+UbVY3T88qKwuLq59u/nnv3z23We+8t0mbL5G4ftTTz65ePLEdYhY28jlZ2dTqdQsPak10Hw7ncwvHnzy8RH2AHv/LJ+nyeX1PILMVy8UCj+Qyk/Hq9bweDrghbefR/mFm6/dQX4/UvjUE+rV0909T8AtuHyNgpYX+PLT9GpH9q3zwfISyvID+3c4o/ohwBy1/ELNt6sVX6HzE8EvWnsyHLtUurP+eGZ+fubx+sPS0vDvN7z8qJtvqPn+qldf4SVh9VP/NhhZujm/gOj0zKM/rpcG/7SZl6h+r6Dy1TsGXwffvAyfWJQeL5h0VuYXHg8A73qsf/eB8u2YfIUCrnmpWS8MLK1/PoPJ5+vWFN6k+9E2jzDzFQYZbV5iNeu6rnRjHqeHKvCGVYBbNL98CiZfuTP0e+32k78yR91awONpWbhlDqI2gPm7IPnaA77MaPMim83yrRtkvZmZG6bffers3QDJd23hoRR+dvjFrJblC0rt6fX3hTFuI08+/tL23hDznQ/wEN9LZ/GdGO3ybQ895Hfb+GY5iXx/kIfIVz4f4GXQ9P37qb34jI7vAWHTsGfeOIRsovIjAVIWv/Dy9TsDPR3QfvSNGUPoC59z+ctKRD/K4hdevq5dD/n9Y1h+5jPGJc+pq09fo/3bMsoPB5g/A8jnwNP8Xg87ZuNy9KGPuYtm70N98JrFNwpI6fzCy3duzNkh3+DoK5/oA5Z9TF19+i7rw/ekWaIfPL76uav6Mh2reZGNufulr7mLZu+X+vCtgd6IX554aRVavvIIXyZjzV3j+eJNX3MXzd6b+vC7w9nrFiTfGoSW77Izomc1LzW96Vv2h6dFn71rTj67IPnOL7R87VG+jHlvX9QH3Pa59KHF77b+BRQ+YucCi89oXoxX80o+lz60+Bk3L1k33wCQfGcVWr4dDF+mo928mJctfnpms/qMzvlCIvlB5MPoZTLa0Vc23uy543PnQHvHHf0LHmH4DMGp4dNeOpCfjce3has+3Y/8sBwUXzqdSf4y6epDgcg3svaltRR+OJX39QETWfvMGoQ3ed07b9pM5vXp5HZeq/rA86UHfC9OJ9X3Dfng9X2OU0falszPxQmdOoZ88E4dtjNv2pHMy+J4Z95ZMh+8M+/wxiXtSuZ7o3MJeuMiieL08AnneDyUznN9QND7vlRKJAACvO8TMmk8Hiq/f4512yzqwejNigD5umk8nlZ+/9JHBHvWIYkiAVCC+Kyj3yHppdMvjMe8gZ60oambwgPOQnzSVj4n8ynf6EOCPOcdFN8oIMjnvAKFL9lr6EN8v2XQyKVEoh/ItwyEa7JeUmkbY3y/42IWX8r8hX4bLn0w33Fp4xe/pJ503Rjk7w2rNREXi4/yfmSI+coKWS+ZfGOO8vN+34N/S3Y0k84CnKW8nRtiPgHXuFh6g+nr5+3S/0jY6jP9yF1fuPl23LM3aY+yaw7zfLe5/9aNZv8zbe6Gmq/unr1Jp9+lNZD+Zv3lr7iyswxTEtQ364Ue2c7pJ5TWnZ/ruDn8XMdlM4eft0YV0vbdkPPtKhQ8za8/HLtUemh9quiO/VNF/eY70sKnR4L7qaJGJknTQ37dhm047jNtXeU9mU7bOAB/pk1oKzQ8za9Xpn19uaes/EYpPXrTF3q+ejpJw9PS7NaJX91txiMfqFM3JUL+PK+wo3jooQJU8ID1rhKPRFZyYpa28oH+NLnQ8NRLJiPxZq/vEqz3e6jykN5HMYtC9oP9/zJAG6c3H4pyley2d8v1RqNe3m2/iVxplReJxCOizkcCpNz0weATet52RuIKSrPZRL/H4+Zfrbwz9fCAqT2vnx56vrLiT2808Xj8/VAP5ydRPgwIhA/tHmPhaXqoacna49pFvPYNEHyNsfB0vY9OPXcBSp4/GwCfUMbuHl52KJG32ZEEmrog+NDZYyy9lV9H9WyAHucNOHzCtdvPBx7aN3JYPlOQftMCis/VvXguekbx/UbS0/y8exZAfPXApRdf+ZDNEcsvK0oexw1QfEJdiQTCQ3xvER/JT6ReMcPjQ91zxE+fPNT7qOkRAH1tuqD4hEvk52/RM/hygzDoweETyr7nrab3Lkv0E0XfeoD40P6h+MTTmhZHnHo+1z1gfELjmuDnxkNNSy5HAJRe+dtz4fEJQhfrN6r3wa03AJQuAv1AWHzCrhL3xEMZKT7DL+fxWBI8n1C/bnrirXzE6SE/6SLIxIXIJwh9RaHrxeN7WL3ApQeST6jvNOMUO9S04PHOgpYeTD7UAr7RAEl67zF4aN76b/ag86EzyLVC0MM0LTlRfDUWHlg+rQIVrODKf0fxxqs80HxoDWz3MIIrzn1DlPY2xljzpoAPpdxWrpyC9qYlK0rZrQAntKnjQ6nvdnvN5tBwICftnW0y1N2U8GlplPs7b64jytXV1f8kSdy7uHi0cZ+ZTstU8JlpaJng9xOmi+93COdjCudjCudjCudjCudjCudjCudjCudjCudjCudjCudjCudjCudjCudjCudjCudjCudjCudjCudjCudjCudjCudjCudjyqT5/g9iljd9nb6cRwAAAABJRU5ErkJggg==;clipPath=inset(16.67% 33.33% 16.67% 33.33%);" vertex="1" parent="1">
                    <mxGeometry x="52" y="92" width="30" height="30" as="geometry"/>
                </mxCell>
                <mxCell id="30" value="VSCode Web" style="rounded=0;whiteSpace=wrap;html=1;gradientColor=none;fillStyle=auto;fillColor=none;fontColor=#000000;verticalAlign=top;strokeColor=#000000;" vertex="1" parent="1">
                    <mxGeometry x="90" y="130" width="230" height="160" as="geometry"/>
                </mxCell>
                <mxCell id="29" value="" style="shape=image;imageAspect=0;aspect=fixed;verticalLabelPosition=bottom;verticalAlign=top;fillStyle=auto;strokeColor=#000000;fontColor=#000000;fillColor=none;gradientColor=none;image=data:image/png,iVBORw0KGgoAAAANSUhEUgAAAOEAAADhCAMAAAAJbSJIAAAAeFBMVEX///8AeswAcsm51+8AeMvt9fsAdMoAdsu/2vAAc8rI4PPE3fHO4vMAcMn1+v3c6/fk8PnU5vVfotoAfc2IuONJlta00u3f7fhpptyhxuh1rd6CtOGqzOsyjNMSgs8ihtCSvuU8kdRWndiKvuWbw+c7kNRyq94Aa8fAC/DtAAAIAUlEQVR4nO2d6XriOgyGE49qT4CwlkJpB2in7dz/HZ4E6GkISSwr8hIef/+noxdJkVc5SaKioqKioqKioqKioqLuQOPHuW8T7GokM/n+27cVFjVSkILK9nfryLGEtBTIfH2XjvwGPEHm++PGt0HcGlUAS8YM3n/5tolVZQ5eC+CuMnIs0waB/Lf+NfVtG4vGsu7BSkY+3kFGjlQL39mRav3k28Keavfgd0aKdNCO1AGeHZmvn4aakSME4AlS7F9mvo2lqDMH646UA8xITIheOVIOzJGGgCdHiiFl5O1IBufI/cvCt+k40QBPjpRvQ8jIMf4j0+RIFXxGmudgjVGJddCMBmWiVXnIE6y+HjxJBEzIAhgyIXaoNlhCcpkYCiFPiAZMyAYYKiFTDoZLOGbKwWAJm1fV7oiQ6ysaLCHHUC1oQs4cDJKQr0wESshYJsIk5P3IBEjIWiZCJGTPwdAI+XOQSLhZ7q1sSnKXCSrhbJsrkBY8byMHCYSzrSpHHCAeuQHthKgp4abgu9gh1ryr5sxDNRrhZplXzFArzkVzK19RQ8LZVlz/zCBfhwCIJbzk3zWi2DEBWstBNOFmKRttyN4eWACt5SCS8Dr/rqTSUX/AXpsvDITTbdZhAYjn3oA2QxRD+NA90gCx7QdoN0RRhKnmJ5Z/+ozhbHuQgzAFNQ4YkIMwhexIBLRaJhgJi2R8pwHamU1YICzHcIS9ZAchmrIRpgDG5x7cALIRFsn4YgboIgdLsRGaTqioM3qAldk/YCRM5WqCByTO6MXbbGX203ASFhMq7BiOGKLldGZqYFApVsLCgi8cIC1EQbwaGpRyExYTqj+ICRXxK6r2G3OD2AmLL4F2DEcEFMspxSB2wqJsfHT/RVoOgvigGcRPWNiy7AQk5aCCEdEgC4RF2ehYFKeFaLZ+oBpkhbBIxrY/SwKE/IVuEIlQH2eQNS+Kk3IQ5JPGoC5RCNVf0P8njWM40lBNHmYag7oNIRCK0QKBqPY3i+KUodrNQpATwt/JBIEIqrYoTglRkPXa44gwmSDcUVsUp6yqqdvBvCvCZIFxiPj8GcNRvqJNyeyMEBWohQ++CzUBsHmX0h0hDhGy84SKkIMtRdUhIS5Qz99CQg7KQ/PAyCVhskCVt+wwHxmXifaZplNCXKCmsDJceOjcfnVLmExQXkT9DlV1baE7JsTloqnEe8eqnWtCZKCaCMTR0KBO9SZkR1Rpd9MS94TJJGOjS8ulLM12pAdCzlxEnO/wQcgXqAD6MzpeCLkQ5QFxzsoPIUugQmeR8E2YYGb9GkB5RPD5I+wdqGqFPO/gjRA16++w4xN7gMwfYbLIyF4Egd9A9khID1SjQwA+CamI8mDSHMgrYZGLhPXCfGl0oNovIaEu4nfGwyA0DlS1Nz2h6pswWRitWMC78Slj74QjIwNgPThC03VR83PUnglxK1NV/b8/PwzCGaEgarb9wyKkAKamRzd9Em6MF34vgszg+o1HwjkV0Oz6jT/Ch32fCSLqtJhfwnkvwHJ+gezt7Ivw4dD3Zgj2xL8nwmlvwFSzXeGZcPqH5W5PwwGVQAinn0yXl773xIMjfGO7nQX5ly5SfRCuOe+Zay+KuSecsgKWkdptknvCd9bNtbSM1M7L/s4J2QHTq/Oy/gm3go2rooBOKqAAQRnPqiBvLRtuCXcoQPE8Np84im1L2XBKiAI8rcSMzfc0Qjj19YIBFOevxkiYn9xTjbsZDgkxgD+bSoRrFldH9D0QPmIAK5tKlFPsoqFsOCM85vo/LvfVTSVCoFZO4Don/NB78GaZcETYQoX86IcQA3hzyj4hFI00rW++OSGcvOoDrnG5fig3SmCr35zImk8eUHKxdpzWyb0n7X/RfvKAdvEp33Ub1CUrd9eur2Jdi5SLafY2pxpkg1B2LiiNKYFapPWYaJCFW7K6NiCkXPyZF3snROwHEtspiPOOuG9CtUIszhMRz8upngmRGyy0XDyXDa+E+E0yateIfOu1awTmDPO3aEWjDJKJv84fqF2HH0TiqWLz5RC2DjymvaJoRcMcka2LEvIMc0WWuurWxUQImosuHhF5CLUXXVoQiYHqnJDeyJSai44J+zSjdRCo/QnNisQNYgCdITW7g7jjBe2yHqj6Dq076IgkzW1IFKLvDq1JMt/ddkm+SKUMzdmpAzg+wpIxb/QjsUjcINKvonARFtn4JW8fNkc2Z9PLai6iO5bP6/kIqneT5B9Ei0XDoOv8fCerXed7FYm6LNZFo5cDKvnI/XKAvQGc4esPD1+nWG1rdNVDlG0bG4Tn2qG7Mk+SraJBeIVl/sVTJOoK5RUWi7JTNEIitFM0giK0kothEdoYwAVGaCEXQyPk/6IGR3j/LzyyD+ACJGSe9YdIyFs0giRkXYELk5CzaARKeP8vjzMWjWAJ2YpGuIRcuRgwIVMHsZAJeRCDJuRokgb/giZEdrltx5NybfxKk2P1CVQQqxfOZWtLMu8lcsFT+ecT76q1LZFyETLYEd5J8yTjQAUpPp+H4b6LzBAL933hX9YKRPgut0X27Z9ZHrh1LGQuFu5b0t/T9CtMoCpxOFrZUHEjHSLIfLDuu6grUKGo7Y9DzL5rtXa5BQnrsMeeWDUHaum+4dR2jW673BbF4W0gQzOcal1uIUsHNDTDqRKooLLP13ty30XfiCBgN7ihGU5ll9vT0OwO3XfRQgpY3qn7LpoMeWgWFRUVFRUVFRUVFRUVFY7+A85AjyTJYV8DAAAAAElFTkSuQmCC;" vertex="1" parent="1">
                    <mxGeometry x="100" y="140" width="30" height="30" as="geometry"/>
                </mxCell>
                <mxCell id="31" value="ターミナル" style="rounded=0;whiteSpace=wrap;html=1;gradientColor=none;fillStyle=auto;fillColor=none;fontColor=#000000;verticalAlign=top;strokeColor=#000000;" vertex="1" parent="1">
                    <mxGeometry x="160" y="240" width="150" height="40" as="geometry"/>
                </mxCell>
                <mxCell id="32" value="VSCode Server" style="rounded=0;whiteSpace=wrap;html=1;gradientColor=none;fillStyle=auto;fillColor=none;fontColor=#000000;verticalAlign=top;strokeColor=#000000;" vertex="1" parent="1">
                    <mxGeometry x="400" y="130" width="150" height="160" as="geometry"/>
                </mxCell>
                <mxCell id="33" value="コード管理" style="rounded=0;whiteSpace=wrap;html=1;gradientColor=none;fillStyle=auto;fillColor=none;fontColor=#000000;verticalAlign=top;strokeColor=#000000;" vertex="1" parent="1">
                    <mxGeometry x="610" y="140" width="140" height="50" as="geometry"/>
                </mxCell>
                <mxCell id="34" value="コンテナ管理" style="rounded=0;whiteSpace=wrap;html=1;gradientColor=none;fillStyle=auto;fillColor=none;fontColor=#000000;verticalAlign=top;strokeColor=#000000;" vertex="1" parent="1">
                    <mxGeometry x="610" y="220" width="140" height="50" as="geometry"/>
                </mxCell>
                <mxCell id="35" value="ワークスペース" style="rounded=0;whiteSpace=wrap;html=1;gradientColor=none;fillStyle=auto;fillColor=none;fontColor=#000000;verticalAlign=top;strokeColor=#000000;" vertex="1" parent="1">
                    <mxGeometry x="417.5" y="162.5" width="115" height="35" as="geometry"/>
                </mxCell>
                <mxCell id="36" value="エクステンション" style="rounded=0;whiteSpace=wrap;html=1;gradientColor=none;fillStyle=auto;fillColor=none;fontColor=#000000;verticalAlign=top;strokeColor=#000000;" vertex="1" parent="1">
                    <mxGeometry x="417.5" y="197.5" width="115" height="35" as="geometry"/>
                </mxCell>
                <mxCell id="37" style="edgeStyle=none;html=1;exitX=0.75;exitY=1;exitDx=0;exitDy=0;entryX=0.686;entryY=1.08;entryDx=0;entryDy=0;entryPerimeter=0;fontColor=#000000;" edge="1" parent="1" source="34" target="34">
                    <mxGeometry relative="1" as="geometry"/>
                </mxCell>
                <mxCell id="39" value="" style="endArrow=block;html=1;strokeColor=#A50040;strokeWidth=3;fontColor=#000000;fillColor=#d80073;endFill=1;" edge="1" parent="1">
                    <mxGeometry width="50" height="50" relative="1" as="geometry">
                        <mxPoint x="320" y="165" as="sourcePoint"/>
                        <mxPoint x="400" y="165" as="targetPoint"/>
                    </mxGeometry>
                </mxCell>
                <mxCell id="40" value="" style="endArrow=block;html=1;strokeColor=#A50040;strokeWidth=3;fontColor=#000000;exitX=1;exitY=0.25;exitDx=0;exitDy=0;fillColor=#d80073;endFill=1;entryX=0;entryY=0.75;entryDx=0;entryDy=0;" edge="1" parent="1" source="31" target="32">
                    <mxGeometry width="50" height="50" relative="1" as="geometry">
                        <mxPoint x="310" y="260.52" as="sourcePoint"/>
                        <mxPoint x="400" y="259" as="targetPoint"/>
                    </mxGeometry>
                </mxCell>
                <mxCell id="41" value="" style="endArrow=block;html=1;strokeColor=#A50040;strokeWidth=3;fontColor=#000000;fillColor=#d80073;endFill=1;" edge="1" parent="1">
                    <mxGeometry width="50" height="50" relative="1" as="geometry">
                        <mxPoint x="550" y="165" as="sourcePoint"/>
                        <mxPoint x="610" y="164.5" as="targetPoint"/>
                    </mxGeometry>
                </mxCell>
                <mxCell id="42" value="" style="endArrow=block;html=1;strokeColor=#A50040;strokeWidth=3;fontColor=#000000;fillColor=#d80073;endFill=1;" edge="1" parent="1">
                    <mxGeometry width="50" height="50" relative="1" as="geometry">
                        <mxPoint x="550" y="245" as="sourcePoint"/>
                        <mxPoint x="610" y="244.5" as="targetPoint"/>
                    </mxGeometry>
                </mxCell>
                <mxCell id="43" value="" style="endArrow=block;html=1;strokeColor=#A50040;strokeWidth=3;fontColor=#000000;fillColor=#d80073;endFill=1;entryX=0.5;entryY=0;entryDx=0;entryDy=0;exitX=0.5;exitY=1;exitDx=0;exitDy=0;" edge="1" parent="1" source="33" target="34">
                    <mxGeometry width="50" height="50" relative="1" as="geometry">
                        <mxPoint x="560" y="175" as="sourcePoint"/>
                        <mxPoint x="620" y="174.5" as="targetPoint"/>
                    </mxGeometry>
                </mxCell>
            </root>
        </mxGraphModel>
    </diagram>
</mxfile>